<svg width="1120" height="699" viewBox="0 0 1120 699" fill="none" xmlns="http://www.w3.org/2000/svg">
<g clip-path="url(#clip0_2_2)">
<path d="M292.609 426C410.246 426 505.609 330.637 505.609 213C505.609 95.3633 410.246 0 292.609 0C174.972 0 79.6091 95.3633 79.6091 213C79.6091 330.637 174.972 426 292.609 426Z" fill="#F2F2F2"/>
<path d="M0 51.1424C0 128.64 48.6181 191.351 108.701 191.351Z" fill="#2F2E41"/>
<path d="M108.701 191.351C108.701 112.982 162.956 49.567 230.004 49.567Z" fill="#F2007A"/>
<path d="M39.3843 58.1677C39.3843 131.782 70.3872 191.351 108.701 191.351Z" fill="#F2007A"/>
<path d="M108.701 191.351C108.701 91.2128 171.411 10.1827 248.909 10.1827Z" fill="#2F2E41"/>
<path d="M85.8329 192.339C85.8329 192.339 101.248 191.864 105.894 188.556C110.54 185.248 129.607 181.298 130.76 186.603C131.912 191.909 153.927 212.991 136.522 213.132C119.118 213.272 96.0831 210.421 91.4462 207.596C86.8093 204.772 85.8329 192.339 85.8329 192.339Z" fill="#A8A8A8"/>
<path opacity="0.2" d="M136.833 211.285C119.429 211.425 96.3938 208.574 91.7568 205.749C88.2256 203.598 86.8184 195.88 86.3476 192.319C86.0215 192.333 85.8329 192.339 85.8329 192.339C85.8329 192.339 86.8093 204.772 91.4463 207.596C96.0832 210.421 119.118 213.272 136.523 213.132C141.546 213.091 143.282 211.304 143.186 208.656C142.488 210.256 140.572 211.255 136.833 211.285Z" fill="black"/>
<path d="M198.609 449.94C301.886 449.94 385.609 438.55 385.609 424.5C385.609 410.45 301.886 399.06 198.609 399.06C95.3319 399.06 11.6091 410.45 11.6091 424.5C11.6091 438.55 95.3319 449.94 198.609 449.94Z" fill="#3F3D56"/>
<path opacity="0.1" d="M198.609 445.859C285.318 445.859 355.609 436.296 355.609 424.5C355.609 412.704 285.318 403.141 198.609 403.141C111.9 403.141 41.6091 412.704 41.6091 424.5C41.6091 436.296 111.9 445.859 198.609 445.859Z" fill="black"/>
<path d="M836.609 699C992.906 699 1119.61 681.763 1119.61 660.5C1119.61 639.237 992.906 622 836.609 622C680.313 622 553.609 639.237 553.609 660.5C553.609 681.763 680.313 699 836.609 699Z" fill="#3F3D56"/>
<path d="M310.609 668.627C404.498 668.627 480.609 658.273 480.609 645.5C480.609 632.727 404.498 622.373 310.609 622.373C216.721 622.373 140.609 632.727 140.609 645.5C140.609 658.273 216.721 668.627 310.609 668.627Z" fill="#3F3D56"/>
<path d="M462.609 626C552.609 649 725.609 596 744.609 536" stroke="#2F2E41" stroke-width="2" stroke-miterlimit="10"/>
<path d="M309.609 259C309.609 259 439.609 223 447.609 339C455.609 455 340.609 488 430.609 511" stroke="#2F2E41" stroke-width="2" stroke-miterlimit="10"/>
<path d="M184.011 537.283C184.011 537.283 223.084 526.463 225.488 561.328C227.893 596.192 193.329 606.111 220.379 613.024" stroke="#2F2E41" stroke-width="2" stroke-miterlimit="10"/>
<path d="M778.705 563.24L770.827 613.535C770.827 613.535 732.045 634.138 759.314 634.744C786.582 635.35 915.047 634.744 915.047 634.744C915.047 634.744 939.892 634.744 900.504 612.929L892.626 560.21L778.705 563.24Z" fill="#2F2E41"/>
<path opacity="0.1" d="M753.828 634.198C760.021 628.688 770.827 622.946 770.827 622.946L778.705 572.651L892.626 572.758L900.504 622.34C909.689 627.427 915.379 631.327 918.707 634.318C923.766 633.164 929.295 628.875 900.504 612.929L892.626 560.21L778.705 563.24L770.827 613.535C770.827 613.535 738.239 630.85 753.828 634.198Z" fill="black"/>
<path d="M1073.64 212.689H596.479C586.512 212.689 578.433 220.768 578.433 230.734V552.163C578.433 562.129 586.512 570.208 596.479 570.208H1073.64C1083.61 570.208 1091.69 562.129 1091.69 552.163V230.734C1091.69 220.768 1083.61 212.689 1073.64 212.689Z" fill="#2F2E41"/>
<path d="M1074.42 231.777H595.703V499.613H1074.42V231.777Z" fill="#3F3D56"/>
<path d="M835.06 226.323C836.733 226.323 838.089 224.966 838.089 223.293C838.089 221.62 836.733 220.263 835.06 220.263C833.386 220.263 832.03 221.62 832.03 223.293C832.03 224.966 833.386 226.323 835.06 226.323Z" fill="#F2F2F2"/>
<path d="M1091.69 520.822V552.163C1091.69 554.533 1091.22 556.879 1090.31 559.069C1089.41 561.258 1088.08 563.248 1086.4 564.924C1084.73 566.599 1082.74 567.929 1080.55 568.835C1078.36 569.742 1076.01 570.209 1073.64 570.208H596.479C594.109 570.209 591.762 569.742 589.573 568.835C587.383 567.929 585.393 566.599 583.718 564.924C582.042 563.248 580.713 561.258 579.806 559.069C578.899 556.879 578.433 554.533 578.433 552.163V520.822H1091.69Z" fill="#2F2E41"/>
<path d="M968.978 667.466V673.526H642.968V668.678L643.417 667.466L651.452 645.651H962.312L968.978 667.466Z" fill="#2F2E41"/>
<path d="M1094.44 661.534C1093.84 664.073 1091.6 666.751 1086.54 669.284C1068.36 678.373 1031.39 666.86 1031.39 666.86C1031.39 666.86 1002.91 662.012 1002.91 649.287C1003.71 648.739 1004.55 648.244 1005.41 647.803C1013.05 643.759 1038.39 633.781 1083.33 648.225C1086.64 649.264 1089.59 651.202 1091.87 653.822C1093.69 655.954 1095.12 658.657 1094.44 661.534Z" fill="#2F2E41"/>
<path opacity="0.1" d="M1094.44 661.534C1072.19 670.06 1052.35 670.696 1032 656.559C1021.73 649.432 1012.41 647.669 1005.41 647.802C1013.05 643.759 1038.39 633.781 1083.33 648.225C1086.64 649.264 1089.59 651.202 1091.87 653.822C1093.69 655.953 1095.12 658.657 1094.44 661.534Z" fill="black"/>
<path d="M1066.54 656.559C1070.89 656.559 1074.42 655.473 1074.42 654.135C1074.42 652.796 1070.89 651.711 1066.54 651.711C1062.19 651.711 1058.66 652.796 1058.66 654.135C1058.66 655.473 1062.19 656.559 1066.54 656.559Z" fill="#F2F2F2"/>
<path d="M835.06 557.18C841.418 557.18 846.573 552.026 846.573 545.667C846.573 539.308 841.418 534.154 835.06 534.154C828.701 534.154 823.546 539.308 823.546 545.667C823.546 552.026 828.701 557.18 835.06 557.18Z" fill="#F2F2F2"/>
<path opacity="0.1" d="M968.978 667.466V673.526H642.968V668.678L643.417 667.466H968.978Z" fill="black"/>
<path d="M316.609 159H108.609V401H316.609V159Z" fill="#2F2E41"/>
<path d="M337.609 135H87.6091V221H337.609V135Z" fill="#3F3D56"/>
<path d="M337.609 237H87.6091V323H337.609V237Z" fill="#3F3D56"/>
<path d="M337.609 339H87.6091V425H337.609V339Z" fill="#3F3D56"/>
<path opacity="0.4" d="M287.609 150H271.609V166H287.609V150Z" fill="#F2007A"/>
<path opacity="0.8" d="M310.609 150H294.609V166H310.609V150Z" fill="#F2007A"/>
<path d="M333.609 150H317.609V166H333.609V150Z" fill="#F2007A"/>
<path opacity="0.4" d="M287.609 251H271.609V267H287.609V251Z" fill="#F2007A"/>
<path opacity="0.8" d="M310.609 251H294.609V267H310.609V251Z" fill="#F2007A"/>
<path d="M333.609 251H317.609V267H333.609V251Z" fill="#F2007A"/>
<path opacity="0.4" d="M287.609 352H271.609V368H287.609V352Z" fill="#F2007A"/>
<path opacity="0.8" d="M310.609 352H294.609V368H310.609V352Z" fill="#F2007A"/>
<path d="M333.609 352H317.609V368H333.609V352Z" fill="#F2007A"/>
<path d="M316.609 617C360.24 617 395.609 581.63 395.609 538C395.609 494.37 360.24 459 316.609 459C272.979 459 237.609 494.37 237.609 538C237.609 581.63 272.979 617 316.609 617Z" fill="#2F2E41"/>
<path d="M304.609 600H280.609V643H304.609V600Z" fill="#2F2E41"/>
<path d="M352.609 600H328.609V643H352.609V600Z" fill="#2F2E41"/>
<path d="M300.609 651C311.655 651 320.609 647.642 320.609 643.5C320.609 639.358 311.655 636 300.609 636C289.563 636 280.609 639.358 280.609 643.5C280.609 647.642 289.563 651 300.609 651Z" fill="#2F2E41"/>
<path d="M348.609 650C359.655 650 368.609 646.642 368.609 642.5C368.609 638.358 359.655 635 348.609 635C337.563 635 328.609 638.358 328.609 642.5C328.609 646.642 337.563 650 348.609 650Z" fill="#2F2E41"/>
<path d="M318.609 545C333.521 545 345.609 532.912 345.609 518C345.609 503.088 333.521 491 318.609 491C303.697 491 291.609 503.088 291.609 518C291.609 532.912 303.697 545 318.609 545Z" fill="white"/>
<path d="M318.609 527C323.58 527 327.609 522.971 327.609 518C327.609 513.029 323.58 509 318.609 509C313.639 509 309.609 513.029 309.609 518C309.609 522.971 313.639 527 318.609 527Z" fill="#3F3D56"/>
<path d="M239.976 464.532C233.598 435.965 253.988 407.098 285.52 400.057C317.053 393.017 347.786 410.467 354.164 439.035C360.543 467.603 339.646 478.139 308.114 485.18C276.582 492.221 246.355 493.1 239.976 464.532Z" fill="#F2007A"/>
<path d="M390.703 522.244C410.759 513.66 424.833 501.597 422.138 495.301C419.443 489.005 401 490.86 380.945 499.444C360.889 508.028 346.816 520.09 349.511 526.386C352.205 532.682 370.648 530.827 390.703 522.244Z" fill="#2F2E41"/>
<path d="M242.703 575.244C262.759 566.66 276.833 554.597 274.138 548.301C271.443 542.005 253 543.86 232.945 552.444C212.889 561.027 198.816 573.09 201.511 579.386C204.205 585.682 222.648 583.827 242.703 575.244Z" fill="#2F2E41"/>
<path d="M362.609 561C362.609 568.732 342.7 584 320.609 584C298.518 584 277.609 569.732 277.609 562C277.609 554.268 298.518 556 320.609 556C342.7 556 362.609 553.268 362.609 561Z" fill="white"/>
<path d="M631.305 350.3H635.405V379H631.305V350.3ZM655.026 357.065C657.787 357.065 659.974 357.871 661.586 359.484C663.226 361.069 664.046 363.406 664.046 366.495V379H660.11V366.946C660.11 364.841 659.605 363.256 658.593 362.19C657.582 361.124 656.133 360.591 654.247 360.591C652.115 360.591 650.434 361.22 649.204 362.477C647.974 363.707 647.359 365.484 647.359 367.807V379H643.423V357.27H647.195V360.55C647.988 359.429 649.054 358.568 650.393 357.967C651.76 357.366 653.304 357.065 655.026 357.065ZM683.549 377.729C682.975 378.221 682.264 378.604 681.417 378.877C680.569 379.123 679.695 379.246 678.793 379.246C676.606 379.246 674.911 378.658 673.709 377.483C672.506 376.308 671.905 374.627 671.905 372.44V360.509H668.215V357.27H671.905V352.514H675.841V357.27H682.073V360.509H675.841V372.276C675.841 373.451 676.128 374.353 676.702 374.982C677.303 375.611 678.15 375.925 679.244 375.925C680.446 375.925 681.471 375.583 682.319 374.9L683.549 377.729ZM707.225 368.258C707.225 368.559 707.198 368.955 707.143 369.447H689.513C689.759 371.36 690.593 372.905 692.014 374.08C693.463 375.228 695.253 375.802 697.385 375.802C699.982 375.802 702.073 374.927 703.658 373.178L705.831 375.72C704.847 376.868 703.617 377.743 702.141 378.344C700.693 378.945 699.066 379.246 697.262 379.246C694.966 379.246 692.93 378.781 691.153 377.852C689.377 376.895 687.996 375.57 687.012 373.875C686.056 372.18 685.577 370.267 685.577 368.135C685.577 366.03 686.042 364.131 686.971 362.436C687.928 360.741 689.226 359.429 690.866 358.5C692.534 357.543 694.406 357.065 696.483 357.065C698.561 357.065 700.406 357.543 702.018 358.5C703.658 359.429 704.929 360.741 705.831 362.436C706.761 364.131 707.225 366.071 707.225 368.258ZM696.483 360.386C694.597 360.386 693.012 360.96 691.727 362.108C690.47 363.256 689.732 364.759 689.513 366.618H703.453C703.235 364.787 702.483 363.297 701.198 362.149C699.941 360.974 698.369 360.386 696.483 360.386ZM716.463 360.919C717.146 359.662 718.158 358.705 719.497 358.049C720.836 357.393 722.463 357.065 724.376 357.065V360.878C724.157 360.851 723.857 360.837 723.474 360.837C721.342 360.837 719.661 361.479 718.431 362.764C717.228 364.021 716.627 365.825 716.627 368.176V379H712.691V357.27H716.463V360.919ZM740.83 357.065C743.591 357.065 745.777 357.871 747.39 359.484C749.03 361.069 749.85 363.406 749.85 366.495V379H745.914V366.946C745.914 364.841 745.408 363.256 744.397 362.19C743.386 361.124 741.937 360.591 740.051 360.591C737.919 360.591 736.238 361.22 735.008 362.477C733.778 363.707 733.163 365.484 733.163 367.807V379H729.227V357.27H732.999V360.55C733.792 359.429 734.858 358.568 736.197 357.967C737.564 357.366 739.108 357.065 740.83 357.065ZM765.047 357.065C768.054 357.065 770.35 357.803 771.935 359.279C773.548 360.755 774.354 362.955 774.354 365.88V379H770.623V376.13C769.967 377.141 769.024 377.92 767.794 378.467C766.592 378.986 765.157 379.246 763.489 379.246C761.057 379.246 759.102 378.658 757.626 377.483C756.178 376.308 755.453 374.763 755.453 372.85C755.453 370.937 756.15 369.406 757.544 368.258C758.938 367.083 761.152 366.495 764.186 366.495H770.418V365.716C770.418 364.021 769.926 362.723 768.942 361.821C767.958 360.919 766.51 360.468 764.596 360.468C763.312 360.468 762.054 360.687 760.824 361.124C759.594 361.534 758.556 362.094 757.708 362.805L756.068 359.853C757.189 358.951 758.528 358.268 760.086 357.803C761.644 357.311 763.298 357.065 765.047 357.065ZM764.145 376.212C765.649 376.212 766.947 375.884 768.04 375.228C769.134 374.545 769.926 373.588 770.418 372.358V369.324H764.35C761.016 369.324 759.348 370.445 759.348 372.686C759.348 373.779 759.772 374.64 760.619 375.269C761.467 375.898 762.642 376.212 764.145 376.212ZM781.638 348.578H785.574V379H781.638V348.578ZM813.038 379.328C810.879 379.328 808.788 379 806.765 378.344C804.77 377.661 803.198 376.786 802.05 375.72L803.567 372.522C804.66 373.506 806.054 374.312 807.749 374.941C809.471 375.542 811.234 375.843 813.038 375.843C815.416 375.843 817.193 375.447 818.368 374.654C819.543 373.834 820.131 372.754 820.131 371.415C820.131 370.431 819.803 369.638 819.147 369.037C818.518 368.408 817.726 367.93 816.769 367.602C815.84 367.274 814.514 366.905 812.792 366.495C810.633 365.976 808.883 365.456 807.544 364.937C806.232 364.418 805.098 363.625 804.141 362.559C803.212 361.466 802.747 360.003 802.747 358.172C802.747 356.641 803.143 355.261 803.936 354.031C804.756 352.801 805.986 351.817 807.626 351.079C809.266 350.341 811.302 349.972 813.735 349.972C815.43 349.972 817.097 350.191 818.737 350.628C820.377 351.065 821.785 351.694 822.96 352.514L821.607 355.794C820.404 355.029 819.12 354.455 817.753 354.072C816.386 353.662 815.047 353.457 813.735 353.457C811.412 353.457 809.662 353.881 808.487 354.728C807.339 355.575 806.765 356.669 806.765 358.008C806.765 358.992 807.093 359.798 807.749 360.427C808.405 361.028 809.211 361.507 810.168 361.862C811.152 362.19 812.478 362.545 814.145 362.928C816.304 363.447 818.04 363.967 819.352 364.486C820.664 365.005 821.785 365.798 822.714 366.864C823.671 367.93 824.149 369.365 824.149 371.169C824.149 372.672 823.739 374.053 822.919 375.31C822.099 376.54 820.855 377.524 819.188 378.262C817.521 378.973 815.471 379.328 813.038 379.328ZM849.204 368.258C849.204 368.559 849.177 368.955 849.122 369.447H831.492C831.738 371.36 832.572 372.905 833.993 374.08C835.442 375.228 837.232 375.802 839.364 375.802C841.961 375.802 844.052 374.927 845.637 373.178L847.81 375.72C846.826 376.868 845.596 377.743 844.12 378.344C842.671 378.945 841.045 379.246 839.241 379.246C836.945 379.246 834.909 378.781 833.132 377.852C831.355 376.895 829.975 375.57 828.991 373.875C828.034 372.18 827.556 370.267 827.556 368.135C827.556 366.03 828.021 364.131 828.95 362.436C829.907 360.741 831.205 359.429 832.845 358.5C834.512 357.543 836.385 357.065 838.462 357.065C840.539 357.065 842.384 357.543 843.997 358.5C845.637 359.429 846.908 360.741 847.81 362.436C848.739 364.131 849.204 366.071 849.204 368.258ZM838.462 360.386C836.576 360.386 834.991 360.96 833.706 362.108C832.449 363.256 831.711 364.759 831.492 366.618H845.432C845.213 364.787 844.462 363.297 843.177 362.149C841.92 360.974 840.348 360.386 838.462 360.386ZM858.441 360.919C859.125 359.662 860.136 358.705 861.475 358.049C862.815 357.393 864.441 357.065 866.354 357.065V360.878C866.136 360.851 865.835 360.837 865.452 360.837C863.32 360.837 861.639 361.479 860.409 362.764C859.207 364.021 858.605 365.825 858.605 368.176V379H854.669V357.27H858.441V360.919ZM891.315 357.27L881.803 379H877.785L868.273 357.27H872.373L879.835 374.695L887.461 357.27H891.315ZM914.027 368.258C914.027 368.559 914 368.955 913.945 369.447H896.315C896.561 371.36 897.395 372.905 898.816 374.08C900.265 375.228 902.055 375.802 904.187 375.802C906.784 375.802 908.875 374.927 910.46 373.178L912.633 375.72C911.649 376.868 910.419 377.743 908.943 378.344C907.495 378.945 905.868 379.246 904.064 379.246C901.768 379.246 899.732 378.781 897.955 377.852C896.179 376.895 894.798 375.57 893.814 373.875C892.858 372.18 892.379 370.267 892.379 368.135C892.379 366.03 892.844 364.131 893.773 362.436C894.73 360.741 896.028 359.429 897.668 358.5C899.336 357.543 901.208 357.065 903.285 357.065C905.363 357.065 907.208 357.543 908.82 358.5C910.46 359.429 911.731 360.741 912.633 362.436C913.563 364.131 914.027 366.071 914.027 368.258ZM903.285 360.386C901.399 360.386 899.814 360.96 898.529 362.108C897.272 363.256 896.534 364.759 896.315 366.618H910.255C910.037 364.787 909.285 363.297 908 362.149C906.743 360.974 905.171 360.386 903.285 360.386ZM923.265 360.919C923.948 359.662 924.959 358.705 926.299 358.049C927.638 357.393 929.264 357.065 931.178 357.065V360.878C930.959 360.851 930.658 360.837 930.276 360.837C928.144 360.837 926.463 361.479 925.233 362.764C924.03 364.021 923.429 365.825 923.429 368.176V379H919.493V357.27H923.265V360.919ZM968.722 375.433V379H947.894V350.3H968.148V353.867H951.994V362.682H966.385V366.167H951.994V375.433H968.722ZM978.559 360.919C979.242 359.662 980.253 358.705 981.593 358.049C982.932 357.393 984.558 357.065 986.472 357.065V360.878C986.253 360.851 985.952 360.837 985.57 360.837C983.438 360.837 981.757 361.479 980.527 362.764C979.324 364.021 978.723 365.825 978.723 368.176V379H974.787V357.27H978.559V360.919ZM995.095 360.919C995.778 359.662 996.789 358.705 998.129 358.049C999.468 357.393 1001.09 357.065 1003.01 357.065V360.878C1002.79 360.851 1002.49 360.837 1002.11 360.837C999.974 360.837 998.293 361.479 997.063 362.764C995.86 364.021 995.259 365.825 995.259 368.176V379H991.323V357.27H995.095V360.919ZM1016.97 379.246C1014.81 379.246 1012.87 378.768 1011.14 377.811C1009.42 376.854 1008.07 375.542 1007.08 373.875C1006.13 372.18 1005.65 370.267 1005.65 368.135C1005.65 366.003 1006.13 364.103 1007.08 362.436C1008.07 360.741 1009.42 359.429 1011.14 358.5C1012.87 357.543 1014.81 357.065 1016.97 357.065C1019.13 357.065 1021.05 357.543 1022.75 358.5C1024.47 359.429 1025.81 360.741 1026.76 362.436C1027.75 364.103 1028.24 366.003 1028.24 368.135C1028.24 370.267 1027.75 372.18 1026.76 373.875C1025.81 375.542 1024.47 376.854 1022.75 377.811C1021.05 378.768 1019.13 379.246 1016.97 379.246ZM1016.97 375.802C1018.36 375.802 1019.6 375.488 1020.7 374.859C1021.82 374.203 1022.69 373.301 1023.32 372.153C1023.95 370.978 1024.26 369.638 1024.26 368.135C1024.26 366.632 1023.95 365.306 1023.32 364.158C1022.69 362.983 1021.82 362.081 1020.7 361.452C1019.6 360.823 1018.36 360.509 1016.97 360.509C1015.57 360.509 1014.31 360.823 1013.19 361.452C1012.1 362.081 1011.23 362.983 1010.57 364.158C1009.94 365.306 1009.63 366.632 1009.63 368.135C1009.63 369.638 1009.94 370.978 1010.57 372.153C1011.23 373.301 1012.1 374.203 1013.19 374.859C1014.31 375.488 1015.57 375.802 1016.97 375.802ZM1037.46 360.919C1038.14 359.662 1039.15 358.705 1040.49 358.049C1041.83 357.393 1043.46 357.065 1045.37 357.065V360.878C1045.15 360.851 1044.85 360.837 1044.47 360.837C1042.34 360.837 1040.65 361.479 1039.42 362.764C1038.22 364.021 1037.62 365.825 1037.62 368.176V379H1033.68V357.27H1037.46V360.919Z" fill="white"/>
</g>
<defs>
<clipPath id="clip0_2_2">
<rect width="1119.61" height="699" fill="white"/>
</clipPath>
</defs>
</svg>
